<svg xmlns="http://www.w3.org/2000/svg" width="21" height="21" viewBox="0 0 21 21" fill="none">
                <g clip-path="url(#clip0_75_12)">
                  <path d="M8.20345 1.81655L4.47618 2.45908C3.02163 2.73444 1.93073 4.01948 1.93073 5.57988V16.1355C1.93073 17.6959 3.02163 18.9809 4.47618 19.2563L8.20345 19.9907C8.38527 20.0824 8.56709 20.0824 8.74889 20.0824C9.47614 20.0824 10.2035 19.8071 10.7489 19.3481C11.4761 18.7056 11.9307 17.8795 11.9307 16.8698V4.93736C11.9307 4.01948 11.4761 3.10159 10.7489 2.45908C10.1126 1.81655 9.11256 1.63298 8.20345 1.81655ZM10.1126 16.8698C10.1126 17.237 9.93073 17.6959 9.65798 17.8795C9.38531 18.1548 8.93073 18.2467 8.56709 18.1548L4.83982 17.4206C4.20345 17.4206 3.74891 16.8698 3.74891 16.2273V5.57988C3.74891 4.93735 4.20345 4.38663 4.83982 4.20305L8.56709 3.56054C8.65798 3.56054 8.74889 3.56054 8.83981 3.56054C9.11256 3.56054 9.47614 3.65232 9.65798 3.83589C9.93073 4.11126 10.1126 4.47842 10.1126 4.93736V16.8698Z" fill="black"/>
                  <path d="M15.2504 3.41574H13.7203C13.1465 3.41574 12.764 3.78855 12.764 4.34776C12.764 4.90697 13.1465 5.27977 13.7203 5.27977H15.2504C16.0154 5.27977 16.6848 5.93219 16.6848 6.6778V14.3203C16.6848 15.066 16.0154 15.7184 15.2504 15.7184H13.7203C13.1465 15.7184 12.764 16.0912 12.764 16.6504C12.764 17.2096 13.1465 17.5824 13.7203 17.5824H15.2504C17.0673 17.5824 18.5974 16.0912 18.5974 14.3203V6.6778C18.5974 4.90697 17.0673 3.41574 15.2504 3.41574Z" fill="black"/>
                  <path d="M7.76406 9.24908C7.26406 9.24908 6.93073 9.61942 6.93073 10.175V11.6565C6.93073 12.2121 7.26406 12.5824 7.76406 12.5824C8.26406 12.5824 8.59739 12.2121 8.59739 11.6565V10.175C8.59739 9.61942 8.26406 9.24908 7.76406 9.24908Z" fill="black"/>
                </g>
                <defs>
                  <clipPath id="clip0_75_12">
                    <rect width="20" height="20" fill="white" transform="translate(0.264038 0.915741)"/>
                  </clipPath>
                </defs>
              </svg>