<svg xmlns="http://www.w3.org/2000/svg" width="20" height="20" viewBox="0 0 20 20" fill="none">
                <path fill-rule="evenodd" clip-rule="evenodd" d="M8.94828 13.8561C8.30359 13.8561 7.76582 13.3633 7.70953 12.7212C7.59182 11.3784 7.56204 10.0297 7.62025 8.68357C7.54998 8.6789 7.47972 8.67399 7.40947 8.66882L6.16818 8.5784C5.3748 8.52057 4.9313 7.6359 5.35962 6.96558C6.27311 5.53599 7.94747 3.93594 9.32536 2.94616C9.72853 2.65654 10.2715 2.65654 10.6748 2.94616C12.0526 3.93594 13.7269 5.53598 14.6404 6.96558C15.0688 7.6359 14.6253 8.52057 13.8319 8.5784L12.5906 8.66882C12.5204 8.67399 12.4501 8.6789 12.3799 8.68357C12.438 10.0297 12.4083 11.3784 12.2905 12.7212C12.2343 13.3633 11.6965 13.8561 11.0519 13.8561H8.94828ZM8.90128 8.13543C8.80653 9.62482 8.8242 11.1192 8.9542 12.6061H11.0459C11.1759 11.1192 11.1936 9.62482 11.0989 8.13543C11.0882 7.96845 11.1449 7.80419 11.2564 7.67941C11.3679 7.55462 11.5247 7.47974 11.6918 7.4715C11.9613 7.45823 12.2306 7.44178 12.4998 7.42216L13.4013 7.35645C12.6016 6.1787 11.6004 5.15015 10.4428 4.31861L10 4.00058L9.55728 4.31861C8.3997 5.15015 7.39847 6.1787 6.59885 7.35645L7.50035 7.42216C7.7695 7.44178 8.03883 7.45823 8.30828 7.4715C8.47536 7.47974 8.6322 7.55462 8.7437 7.67941C8.85511 7.80419 8.91186 7.96845 8.90128 8.13543Z" fill="black"/>
                <path d="M4.79169 14.1667C4.79169 13.8215 4.51186 13.5417 4.16669 13.5417C3.82151 13.5417 3.54169 13.8215 3.54169 14.1667V15.8333C3.54169 16.6387 4.1946 17.2917 5.00002 17.2917H15C15.8054 17.2917 16.4584 16.6387 16.4584 15.8333V14.1667C16.4584 13.8215 16.1785 13.5417 15.8334 13.5417C15.4882 13.5417 15.2084 13.8215 15.2084 14.1667V15.8333C15.2084 15.9484 15.1151 16.0417 15 16.0417H5.00002C4.88496 16.0417 4.79169 15.9484 4.79169 15.8333V14.1667Z" fill="black"/>
              </svg>