<svg xmlns="http://www.w3.org/2000/svg" width="20" height="20" viewBox="0 0 20 20" fill="none">
                <path fill-rule="evenodd" clip-rule="evenodd" d="M8.94832 2.70834C8.30362 2.70834 7.76586 3.20104 7.70956 3.84325C7.59186 5.18598 7.56207 6.53471 7.62029 7.88078C7.55002 7.88549 7.47975 7.8904 7.40949 7.89553L6.16824 7.98601C5.37487 8.04384 4.93136 8.92851 5.35968 9.59876C6.27316 11.0284 7.45021 12.2712 8.82807 13.261L9.32532 13.6182C9.72857 13.9078 10.2716 13.9078 10.6747 13.6182L11.1721 13.261C12.5499 12.2712 13.727 11.0284 14.6404 9.59876C15.0687 8.92851 14.6252 8.04384 13.8319 7.98601L12.5907 7.89553C12.5204 7.8904 12.4501 7.88549 12.3798 7.88078C12.4381 6.53471 12.4082 5.18598 12.2906 3.84324C12.2342 3.20103 11.6965 2.70834 11.0518 2.70834H8.94832ZM8.90132 8.42893C8.80657 6.93959 8.82424 5.44515 8.95424 3.95834H11.0458C11.1759 5.44515 11.1936 6.93959 11.0988 8.42893C11.0882 8.59593 11.145 8.76018 11.2564 8.88501C11.3678 9.00976 11.5247 9.08468 11.6918 9.09284C11.9612 9.10618 12.2306 9.12259 12.4997 9.14226L13.4012 9.20793C12.6016 10.3857 11.6003 11.4143 10.4427 12.2458L10.0001 12.5638L9.55732 12.2458C8.39974 11.4143 7.39852 10.3857 6.59891 9.20793L7.50037 9.14226C7.76953 9.12259 8.03886 9.10618 8.30832 9.09284C8.47541 9.08468 8.63224 9.00976 8.74374 8.88501C8.85516 8.76018 8.91191 8.59593 8.90132 8.42893Z" fill="black"/>
                <path d="M4.79169 14.1667C4.79169 13.8215 4.51186 13.5417 4.16669 13.5417C3.82151 13.5417 3.54169 13.8215 3.54169 14.1667V15.8333C3.54169 16.6387 4.1946 17.2917 5.00002 17.2917H15C15.8054 17.2917 16.4584 16.6387 16.4584 15.8333V14.1667C16.4584 13.8215 16.1785 13.5417 15.8334 13.5417C15.4882 13.5417 15.2084 13.8215 15.2084 14.1667V15.8333C15.2084 15.9484 15.1151 16.0417 15 16.0417H5.00002C4.88496 16.0417 4.79169 15.9484 4.79169 15.8333V14.1667Z" fill="black"/>
              </svg>