<svg xmlns="http://www.w3.org/2000/svg" width="20" height="20" viewBox="0 0 20 20" fill="none">
                <path d="M10 15.2083C9.65483 15.2083 9.375 15.4882 9.375 15.8333C9.375 16.1785 9.65483 16.4583 10 16.4583H15C15.8054 16.4583 16.4583 15.8054 16.4583 15V4.99999C16.4583 4.19457 15.8054 3.54166 15 3.54166H10C9.65483 3.54166 9.375 3.82148 9.375 4.16666C9.375 4.51183 9.65483 4.79166 10 4.79166H15C15.1151 4.79166 15.2083 4.88493 15.2083 4.99999V15C15.2083 15.1151 15.1151 15.2083 15 15.2083H10Z" fill="black"/>
                <path fill-rule="evenodd" clip-rule="evenodd" d="M12.0859 11.971C12.6611 11.971 13.1276 11.5047 13.1276 10.9293V9.06224C13.1276 8.4869 12.6611 8.02057 12.0859 8.02057H8.24204C8.23661 7.95939 8.23092 7.89821 8.22498 7.83705L8.17995 7.37382C8.11126 6.66706 7.36076 6.2438 6.7204 6.55069C5.35855 7.20334 4.12569 8.09647 3.08111 9.18707L2.99845 9.2734C2.6116 9.67732 2.6116 10.3142 2.99844 10.7182L3.08111 10.8045C4.12569 11.8951 5.35855 12.7882 6.7204 13.4409C7.36075 13.7477 8.11126 13.3245 8.17995 12.6177L8.22498 12.1545C8.23092 12.0933 8.23661 12.0322 8.24204 11.971H12.0859ZM7.66257 10.721C7.4406 10.721 7.24436 10.8371 7.13338 11.0133C7.07934 11.0992 7.04551 11.1992 7.03878 11.3071C7.02366 11.5495 7.00435 11.7917 6.98084 12.0336L6.96777 12.1681C6.1044 11.7231 5.30261 11.169 4.58196 10.5199C4.395 10.3515 4.2135 10.1767 4.0378 9.99582C4.89075 9.1174 5.8804 8.3839 6.96777 7.82352L6.98084 7.95798C7.00435 8.19988 7.02366 8.44207 7.03878 8.68449C7.05933 9.0139 7.3325 9.27057 7.66257 9.27057H11.8776V10.721H7.66257Z" fill="black"/>
              </svg>