<svg xmlns="http://www.w3.org/2000/svg" width="21" height="21" viewBox="0 0 21 21" fill="none">
                <path d="M15.8445 8.91693C14.3377 8.91693 12.9983 9.78501 12.3285 11.0003H9.23109C8.47767 9.69818 7.22196 8.91693 5.63139 8.91693C3.37113 8.91693 1.52942 10.7398 1.52942 13.0836C1.52942 15.4273 3.37113 17.2503 5.63139 17.2503C7.89167 17.2503 9.73334 15.3405 9.73334 13.0836C9.73334 12.9968 9.73334 12.8232 9.73334 12.7363H11.6588C11.6588 12.8232 11.6588 12.9968 11.6588 13.0836C11.6588 15.4273 13.5005 17.2503 15.7608 17.2503C18.0211 17.2503 19.8628 15.3405 19.8628 13.0836C19.8628 10.8267 18.1048 8.91693 15.8445 8.91693ZM5.63139 15.5142C4.29198 15.5142 3.20369 14.3857 3.20369 13.0836C3.20369 11.7815 4.29198 10.653 5.63139 10.653C6.97082 10.653 8.0591 11.7815 8.0591 13.0836C8.0591 14.3857 7.05454 15.5142 5.63139 15.5142ZM15.8445 15.5142C14.5051 15.5142 13.4168 14.3857 13.4168 13.0836C13.4168 11.7815 14.5051 10.653 15.8445 10.653C17.1839 10.653 18.2722 11.6947 18.2722 13.0836C18.2722 14.4725 17.1839 15.5142 15.8445 15.5142Z" fill="black"/>
                <path d="M1.97932 8.83887C2.05734 8.91695 2.21338 8.91695 2.2914 8.91695C2.60349 8.91695 2.91557 8.7607 2.99359 8.44821L3.7738 6.57321C4.08588 5.87009 4.71005 5.47946 5.41224 5.47946H6.58255C7.05067 5.47946 7.36275 5.16696 7.36275 4.69821C7.36275 4.22946 6.97265 3.91696 6.58255 3.91696H5.41224C4.08588 3.91696 2.83755 4.69821 2.36942 5.87009L1.58921 7.82321C1.43318 8.21384 1.58921 8.68259 1.97932 8.83887Z" fill="black"/>
                <path d="M14.8156 5.50426H15.9949C16.7025 5.50426 17.3314 5.90109 17.5673 6.536L18.3535 8.44077C18.5108 8.7582 18.7466 8.91695 19.0611 8.91695C19.1397 8.91695 19.2969 8.91695 19.3756 8.83762C19.7687 8.67886 20.0045 8.20267 19.7687 7.80584L18.9824 5.90109C18.5893 4.71061 17.3314 3.91696 15.9949 3.91696H14.8156C14.3439 3.91696 14.0294 4.23442 14.0294 4.71061C14.0294 5.1868 14.4225 5.50426 14.8156 5.50426Z" fill="black"/>
              </svg>