<svg xmlns="http://www.w3.org/2000/svg" width="20" height="20" viewBox="0 0 20 20" fill="none">
                <path fill-rule="evenodd" clip-rule="evenodd" d="M9.51256 1.99591C9.83014 1.89829 10.1698 1.89829 10.4874 1.99591L12.9755 2.76063C14.2736 3.15959 15.5062 3.74614 16.6346 4.50168C17.5122 5.08934 17.0962 6.45829 16.0401 6.45829H3.9599C2.9037 6.45829 2.4877 5.08934 3.36532 4.50169C4.49368 3.74614 5.72643 3.15959 7.02446 2.76063L9.51256 1.99591ZM10.1201 3.19074C10.0418 3.16668 9.95814 3.16668 9.87981 3.19074L7.3917 3.95547C6.40769 4.2579 5.4649 4.67877 4.58389 5.20829H15.4161C14.5351 4.67877 13.5922 4.2579 12.6082 3.95547L10.1201 3.19074Z" fill="black"/>
                <path d="M3.54169 17.5C3.54169 17.1548 3.82151 16.875 4.16669 16.875H15.8334C16.1785 16.875 16.4584 17.1548 16.4584 17.5C16.4584 17.8452 16.1785 18.125 15.8334 18.125H4.16669C3.82151 18.125 3.54169 17.8452 3.54169 17.5Z" fill="black"/>
                <path d="M5.20831 14.1667C5.20831 14.5118 5.48814 14.7917 5.83331 14.7917C6.17849 14.7917 6.45831 14.5118 6.45831 14.1667V9.16666C6.45831 8.82149 6.17849 8.54166 5.83331 8.54166C5.48814 8.54166 5.20831 8.82149 5.20831 9.16666V14.1667Z" fill="black"/>
                <path d="M10 14.7917C9.65483 14.7917 9.375 14.5118 9.375 14.1667V9.16666C9.375 8.82149 9.65483 8.54166 10 8.54166C10.3452 8.54166 10.625 8.82149 10.625 9.16666V14.1667C10.625 14.5118 10.3452 14.7917 10 14.7917Z" fill="black"/>
                <path d="M13.5417 14.1667C13.5417 14.5118 13.8215 14.7917 14.1667 14.7917C14.5119 14.7917 14.7917 14.5118 14.7917 14.1667V9.16666C14.7917 8.82149 14.5119 8.54166 14.1667 8.54166C13.8215 8.54166 13.5417 8.82149 13.5417 9.16666V14.1667Z" fill="black"/>
              </svg>