<svg xmlns="http://www.w3.org/2000/svg" width="21" height="21" viewBox="0 0 21 21" fill="none">
                <path fill-rule="evenodd" clip-rule="evenodd" d="M18.4068 11.1924C18.39 11.1867 18.372 11.1836 18.3533 11.1836H11.2257C11.207 11.1836 11.189 11.1867 11.1722 11.1924C11.1065 11.2147 11.059 11.2769 11.059 11.3503V16.7021C11.059 16.7838 11.1183 16.8534 11.199 16.8666L18.3265 18.0272C18.428 18.0437 18.52 17.9653 18.52 17.8627V11.3503C18.52 11.2769 18.4726 11.2147 18.4068 11.1924ZM17.27 16.5887V12.4336H12.309V15.7808L17.27 16.5887ZM11.1722 9.9346C11.189 9.94035 11.207 9.94343 11.2257 9.94343H18.3533C18.372 9.94343 18.39 9.94035 18.4068 9.9346C18.4726 9.91235 18.52 9.8501 18.52 9.77676V3.26104C18.52 3.1581 18.4276 3.07979 18.3261 3.09661L11.1985 4.2777C11.118 4.29103 11.059 4.3606 11.059 4.44213V9.77676C11.059 9.8501 11.1065 9.91235 11.1722 9.9346ZM17.27 4.53865L12.309 5.36072V8.6934H17.27V4.53865ZM9.36229 9.93443C9.43096 9.91385 9.48096 9.85018 9.48096 9.77476V4.70244C9.48096 4.59951 9.38854 4.52119 9.28704 4.53801L3.31374 5.52771C3.23331 5.54104 3.17432 5.6106 3.17432 5.69214V9.77476C3.17432 9.85018 3.22434 9.91385 3.293 9.93443C3.30819 9.93901 3.32431 9.94143 3.34098 9.94143H9.31429C9.33096 9.94143 9.34704 9.93901 9.36229 9.93443ZM8.23095 5.98004L4.42432 6.61075V8.69145H8.23095V5.98004ZM9.36229 11.1907C9.34704 11.1861 9.33096 11.1836 9.31429 11.1836H3.34098C3.3243 11.1836 3.30819 11.1861 3.293 11.1907C3.22434 11.2113 3.17432 11.2749 3.17432 11.3503V15.4716C3.17432 15.5533 3.23355 15.623 3.31419 15.6361L9.28746 16.6092C9.38888 16.6257 9.48096 16.5474 9.48096 16.4447V11.3503C9.48096 11.2749 9.43096 11.2113 9.36229 11.1907ZM8.23095 15.1706V12.4336H4.42432V14.5505L8.23095 15.1706Z" fill="black"/>
              </svg>